HIERARCHY
ROOT Hips
{
  OFFSET -32.5998 29.0326 120.673
  CHANNELS 6 Xposition Yposition Zposition Zrotation Xrotation Yrotation
  JOINT LeftUpLeg
  {
    OFFSET 8.64259 1.95398 -2.38835
    CHANNELS 3 Zrotation Xrotation Yrotation
    JOINT LeftLeg
    {
      OFFSET 43.7702 0 0
      CHANNELS 3 Zrotation Xrotation Yrotation
      JOINT LeftFoot
      {
        OFFSET 40.6238 0 0
        CHANNELS 3 Zrotation Xrotation Yrotation
        JOINT LeftToeBase
        {
          OFFSET 12.7242 0 0
          CHANNELS 3 Zrotation Xrotation Yrotation
          End Site
          {
            OFFSET 0 0 0
          }
        }
      }
    }
  }
  JOINT RightUpLeg
  {
    OFFSET -8.2249 1.95398 -2.59336
    CHANNELS 3 Zrotation Xrotation Yrotation
    JOINT RightLeg
    {
      OFFSET 43.5653 0 0
      CHANNELS 3 Zrotation Xrotation Yrotation
      JOINT RightFoot
      {
        OFFSET 40.6238 0 0
        CHANNELS 3 Zrotation Xrotation Yrotation
        JOINT RightToeBase
        {
          OFFSET 12.7242 0 0
          CHANNELS 3 Zrotation Xrotation Yrotation
          End Site
          {
            OFFSET 0 0 0
          }
        }
      }
    }
  }
  JOINT Spine
  {
    OFFSET 0.165834 0.87714 6.61349
    CHANNELS 3 Zrotation Xrotation Yrotation
    JOINT Spine1
    {
      OFFSET 7.38963 1.71661e-005 0
      CHANNELS 3 Zrotation Xrotation Yrotation
      JOINT Spine2
      {
        OFFSET 11.9445 1.14441e-005 0
        CHANNELS 3 Zrotation Xrotation Yrotation
        JOINT Spine3
        {
          OFFSET 14.7254 4.19617e-005 0
          CHANNELS 3 Zrotation Xrotation Yrotation
          JOINT Spine4
          {
            OFFSET 10.9679 0 0
            CHANNELS 3 Zrotation Xrotation Yrotation
            JOINT RightShoulder
            {
              OFFSET 2.46616 -1.6653 3.69651
              CHANNELS 3 Zrotation Xrotation Yrotation
              JOINT RightArm
              {
                OFFSET 13.0012 0 0
                CHANNELS 3 Zrotation Xrotation Yrotation
                JOINT RightForeArm
                {
                  OFFSET 28.7848 1.62311e-005 0
                  CHANNELS 3 Zrotation Xrotation Yrotation
                  JOINT RightHand
                  {
                    OFFSET 26.5688 1.62095e-005 0
                    CHANNELS 3 Zrotation Xrotation Yrotation
                    End Site
                    {
                      OFFSET 0 0 0
                    }
                  }
                }
              }
            }
            JOINT LeftShoulder
            {
              OFFSET 2.38034 -1.29275 -3.7523
              CHANNELS 3 Zrotation Xrotation Yrotation
              JOINT LeftArm
              {
                OFFSET 16.3182 6.07031e-005 0
                CHANNELS 3 Zrotation Xrotation Yrotation
                JOINT LeftForeArm
                {
                  OFFSET 27.0901 0 0
                  CHANNELS 3 Zrotation Xrotation Yrotation
                  JOINT LeftHand
                  {
                    OFFSET 24.5451 1.51738e-005 0
                    CHANNELS 3 Zrotation Xrotation Yrotation
                    End Site
                    {
                      OFFSET 0 0 0
                    }
                  }
                }
              }
            }
            JOINT Neck
            {
              OFFSET 5.0226 -0.0266342 0
              CHANNELS 3 Zrotation Xrotation Yrotation
              JOINT Head
              {
                OFFSET 6.69364 2.86102e-005 0
                CHANNELS 3 Zrotation Xrotation Yrotation
                End Site
                {
                  OFFSET 0 0 0
                }
              }
            }
          }
        }
      }
    }
  }
}
MOTION
Frames:	18
Frame Time:	0.0416667
-222.522 96.2171 191.83 -101.763 -44.6787 -102.042 -175.135 2.44945 84.0779 -26.8788 9.40102 -1.34891 76.9764 9.2224 -1.81295 10.9463 -13.1775 8.33518 172.036 14.6533 84.9848 -55.766 -13.1599 -2.27733 67.9166 -4.22479 -1.74674 26.8606 0.391938 1.80041 0.934821 8.46374 -89.9066 9.94713 1.90559 0.0298339 -1.72242 1.90506 -0.0541005 -24.268 1.80849 0.60135 -4.25532 1.8085 0.601348 95.6917 -23.8994 -96.7516 44.5159 -20.5189 -5.59094 -13.8454 -19.6849 -23.2715 -9.62807 -0.0756132 -4.47936 -86.7753 -49.4827 83.4809 -27.5182 17.8243 7.11065 6.31153 -10.6004 -15.8975 -1.81332 -0.0958885 -5.46899 -5.20267 -2.52816 -4.12123 -2.63368 -2.15938 -4.80116 
-219.589 95.7819 187.699 -101.665 -46.3103 -102.852 -175.143 7.20664 83.7603 -28.4459 12.5633 -1.93665 74.3434 8.36624 0.538034 9.48252 -13.4974 7.53793 171.694 4.0897 83.0508 -58.6867 -19.2241 -4.3137 67.134 -3.86128 -1.08555 25.4465 0.939752 2.01553 1.19034 8.24853 -89.6037 10.3723 2.55284 0.563964 -1.29621 2.57518 0.450991 -23.8472 2.26527 1.30546 -3.8345 2.26527 1.30547 91.348 -25.4126 -105.792 42.5331 -13.1537 -1.83111 -18.5676 -18.061 -30.0166 -10.0443 -0.101263 -4.19517 -86.5436 -50.242 83.9518 -29.4186 10.4081 12.4401 6.69136 -12.8418 -17.1608 -0.481386 -0.0660255 -2.8811 -5.7353 -4.14307 -4.78858 -2.10528 -3.76674 -6.35548 
-215.978 94.7896 182.281 -100.114 -47.8266 -102.025 -175.468 14.8872 83.6438 -31.4308 13.2258 -1.89705 70.608 5.88531 0.737135 9.55153 -13.0403 6.92613 171.885 -6.37244 83.6227 -47.3372 -24.0844 -5.84181 69.6053 -6.31203 -3.04728 30.0613 -1.63578 4.8324 1.35519 8.05432 -89.3436 10.7527 3.00139 1.02853 -0.915143 3.04374 0.895331 -23.4684 2.55348 1.88342 -3.45578 2.55349 1.88342 91.3053 -24.7804 -106.117 41.8043 -12.8616 -4.90875 -20.2264 -16.6786 -33.7365 -10.2829 -0.100581 -4.22543 -85.4872 -50.2989 85.5435 -30.7739 8.88434 13.4023 6.53255 -12.627 -20.6683 -4.11276 -0.076224 -4.91034 -4.56224 -5.24679 -5.7002 -2.305 -4.71717 -7.48155 
-210.898 94.0278 174.572 -96.9345 -47.6657 -99.0106 -176.189 22.2282 84.8661 -28.4969 13.6793 -1.58261 63.09 0.930432 0.0454339 8.41892 -13.6875 6.91356 172.956 -10.2899 86.131 -31.9468 -21.5603 -5.60491 76.9676 -12.3857 -4.72968 36.8746 -4.16531 3.55794 1.75236 7.95685 -89.3463 10.946 3.79142 0.942394 -0.7197 3.82922 0.774377 -23.2881 3.33278 2.03934 -3.27548 3.33277 2.03933 91.1576 -23.3653 -107.04 40.7138 -11.5228 -6.88941 -22.9693 -15.8554 -38.7944 -10.3414 -0.130477 -3.87501 -85.6334 -53.9256 85.8195 -25.9346 6.85988 9.63621 9.01216 -7.73032 -23.2707 -5.73619 -0.0529549 -5.74047 -3.16426 -6.26931 -3.35784 -1.25901 -6.03103 -10.1029 
-205.66 94.392 166.578 -96.26 -50.4338 -95.8326 -176.634 23.6943 87.2403 -20.3198 10.5614 -1.15257 64.932 2.66964 0.620191 6.10386 -14.8382 6.62395 173.636 -6.7286 89.7959 -27.4268 -19.7912 -2.80426 80.4071 -14.2879 -3.28983 32.1319 -1.95929 2.1911 1.49487 8.12493 -89.7628 10.6243 3.08638 0.192 -1.04296 3.09183 0.0558322 -23.6046 2.88588 1.11148 -3.59196 2.88586 1.11147 91.0374 -22.3754 -107.742 37.7899 -13.7033 -9.50495 -24.3377 -15.5173 -41.2459 -8.402 -0.0919229 -4.14316 -85.7979 -56.5814 85.9257 -20.9457 9.27905 4.1563 9.71922 -6.04158 -21.1798 -4.35205 -0.104104 -3.58381 0.479787 -6.01524 -0.288563 -1.92613 -6.03298 -10.2701 
-202.306 96.1713 160.114 -97.6752 -55.0766 -97.5352 -175.543 22.2835 86.5429 -21.9019 -1.09445 -1.66671 65.4896 2.96517 -0.652585 13.7216 -13.2252 10.987 174.65 -3.10099 91.6854 -25.8397 -15.5414 -2.04724 76.9877 -11.0494 -3.15205 27.6773 -0.296486 3.12478 0.880594 8.1665 -89.8204 10.5399 1.83636 0.192695 -1.1297 1.84307 0.111648 -23.674 1.6935 0.73584 -3.66137 1.69352 0.735842 91.5558 -23.4451 -106.125 37.9969 -14.2973 -8.44437 -21.3648 -14.5195 -37.9104 -10.2295 -0.19296 -3.0807 -87.5872 -53.6062 82.9444 -21.2054 14.3098 -0.456035 8.02852 -8.30316 -12.9829 -2.71648 -0.0867517 -5.44163 -0.33422 -5.35681 -1.47255 -2.10062 -5.18991 -7.90155 
-199.792 97.2417 155.073 -99.0193 -57.7353 -99.3501 -174.678 21.2308 88.2262 -37.7558 8.13989 -0.642346 69.3573 5.21755 -0.0513748 9.38833 -12.665 6.21092 174.389 -0.805614 91.743 -23.5046 -14.2382 -1.19932 73.8847 -8.22806 -1.79347 26.0768 0.613403 2.23677 0.449986 8.0914 -89.8021 10.6906 0.987358 0.302447 -0.979987 0.999697 0.258689 -23.5174 0.850797 0.585225 -3.50479 0.850786 0.585217 92.2979 -24.9862 -103.895 41.9634 -12.3885 -3.48212 -21.2295 -15.8454 -36.372 -11.6411 -0.164409 -3.67466 -87.3296 -48.8775 82.5436 -22.4142 19.1306 -5.58354 7.28239 -8.27188 -9.65382 -1.73965 -0.0820948 -4.11489 -0.0303328 -4.86486 -3.78776 -2.95401 -4.30335 -4.0395 
-197.192 97.4632 150.909 -99.3384 -58.4447 -99.0859 -175.035 16.6464 91.6487 -51.8243 14.0419 2.12725 72.3735 6.87121 -0.30266 11.4444 -12.3868 7.57845 174.648 2.63156 92.5585 -24.1881 -13.8466 -0.627851 71.9783 -7.06319 -1.76738 25.1153 0.953016 2.51637 0.004703 7.93685 -89.9904 10.999 0.0139578 0.0189031 -0.671963 0.0147565 0.0182744 -23.207 0.00762437 0.022226 -3.19431 0.00761688 0.0222221 92.7867 -25.3957 -102.687 45.4133 -14.9433 1.11931 -19.0722 -17.0178 -32.6336 -10.9984 -0.14669 -3.78086 -87.1153 -47.7607 82.6715 -22.096 19.7607 -8.08155 7.77373 -7.19328 -14.35 -0.298125 -0.0876096 -4.19293 0.0526053 -3.30373 -3.62088 -3.38163 -2.76286 -1.40469 
-194.476 97.2689 147.552 -102.054 -58.8213 -99.4997 -175.147 7.23488 96.7145 -56.7189 21.2054 5.06555 71.0717 6.55042 0.110399 12.9462 -10.8357 6.47413 175.112 4.62491 93.7653 -24.9279 -13.3657 0.0203176 70.249 -5.85476 -1.93425 25.0881 1.03554 2.26539 -0.457835 7.89676 -90.3496 11.0775 -1.07346 -0.592016 -0.593137 -1.09848 -0.544204 -23.1296 -0.845902 -0.88727 -3.11698 -0.845909 -0.887277 92.7799 -26.1353 -102.448 48.2469 -15.4262 5.35323 -13.6294 -14.7748 -25.1067 -11.7154 -0.130419 -4.03046 -86.9959 -47.0924 82.7403 -23.6783 18.9832 -10.9423 8.86559 -5.76242 -17.9574 -0.174447 -0.102279 -4.98252 -1.43686 -1.47612 -2.09689 -3.37944 -1.19698 0.181764 
-190.777 96.585 144.29 -103.219 -59.1988 -99.1745 -173.53 -1.67879 99.8823 -53.0884 31.5968 6.78922 67.6352 4.80923 -0.649991 13.3904 -9.7854 5.18652 175.689 8.63664 94.4434 -27.55 -12.3352 0.051739 68.8294 -4.4737 -1.52174 24.5325 1.17804 2.61053 -0.776447 7.88238 -90.6314 11.1014 -1.83862 -1.07869 -0.56859 -1.88428 -0.996724 -23.1072 -1.42946 -1.58142 -3.09456 -1.42944 -1.58142 92.8041 -27.1851 -102.042 49.567 -14.3359 7.74524 -10.1925 -11.6371 -19.2032 -9.66418 0.00426025 -5.5588 -86.583 -46.1307 83.2211 -25.1672 19.4251 -15.9956 10.8736 -1.8428 -20.3579 -2.2825 -0.0969637 -6.01744 -1.95431 -0.184745 -0.726005 -4.14867 -0.104225 1.41636 
-185.37 95.7596 140.131 -103.167 -60.105 -98.8157 -171.472 -7.2329 100.51 -43.4972 37.4719 6.10249 70.0042 6.89018 0.0162368 22.6475 -5.43573 5.7509 175.716 13.9216 93.35 -28.8658 -12.4843 -0.0559894 65.8795 -2.14624 -1.34715 23.3268 1.49014 3.29142 -1.03323 7.93295 -90.8866 10.9893 -2.46754 -1.52859 -0.680061 -2.53241 -1.41848 -23.2202 -1.89416 -2.19951 -3.20751 -1.89414 -2.19951 93.4931 -26.7036 -100.747 49.5787 -13.84 7.51895 -11.3199 -13.0291 -20.1635 -7.39092 0.087332 -6.96642 -87.3566 -46.9612 82.1541 -24.5399 19.5249 -21.2556 12.2841 0.477189 -21.4853 -1.96579 -0.100092 -6.7226 -1.63876 0.572601 1.26088 -4.56296 0.390737 1.87758 
-178.091 94.6786 134.351 -100.394 -62.3522 -97.1256 -172.409 -7.212 97.9368 -34.442 33.9621 4.54399 81.0266 13.9535 -1.58205 29.4282 -4.11775 10.5364 175.825 20.2865 90.6362 -26.2309 -12.7405 -0.476172 60.2007 2.06056 0.0424702 23.1271 1.62315 3.14329 -1.25997 7.96664 -90.8639 10.9206 -2.90811 -1.44409 -0.747788 -2.96884 -1.31462 -23.2949 -2.33971 -2.2515 -3.28223 -2.33972 -2.2515 93.3421 -28.3077 -100.571 46.5252 -12.1779 5.29755 -13.6983 -10.7951 -25.7095 -6.08257 0.153671 -8.53264 -87.2719 -44.0609 81.748 -25.6093 20.5131 -26.3604 13.8867 4.46618 -20.9119 -3.65466 -0.0510718 -7.79666 -0.940488 0.43046 -1.16323 -4.61891 0.546452 3.30355 
-170.853 94.7963 128.523 -97.8485 -59.8529 -97.8071 -174.845 -3.1125 91.2093 -33.2258 28.0564 2.52119 86.0001 16.412 -3.38067 20.897 -7.53043 8.21637 176.176 22.6495 87.0561 -19.2583 -12.8525 -1.64137 61.931 0.660391 -0.876182 24.5084 0.980909 3.32992 -0.899371 8.02541 -90.5026 10.8162 -2.02284 -0.811241 -0.853362 -2.05655 -0.721407 -23.3959 -1.68549 -1.38177 -3.38325 -1.6855 -1.38178 93.2901 -29.8234 -100.233 42.2739 -11.1766 1.61269 -17.3673 -15.9597 -29.6922 -12.3596 -0.225772 -3.16184 -87.3958 -44.1344 81.564 -23.3051 22.5043 -27.0485 13.7581 5.98344 -20.274 -3.1474 -0.0744607 -6.74384 -1.96777 -0.0344529 -3.34839 -5.55661 0.30061 3.98262 
-164.998 96.2378 123.997 -95.1394 -53.0234 -95.4835 -174.58 0.247997 88.1833 -29.381 22.3847 0.188785 81.8444 12.8772 -4.88684 19.1161 -9.19444 9.46832 175.552 21.1179 88.4054 -13.7246 0.487948 -0.205784 68.6014 -4.21076 -2.32684 19.9381 3.35452 2.09467 -0.157908 8.01042 -90.3558 10.8509 -0.478713 -0.663044 -0.82007 -0.507451 -0.641341 -23.3541 -0.25732 -0.776265 -3.34148 -0.257328 -0.776275 92.1883 -27.9795 -103.062 42.2187 -12.0485 -0.871979 -13.9285 -11.0159 -26.9774 -13.6844 -0.206175 -3.57833 -86.8198 -45.7078 82.7728 -24.0811 22.1807 -18.9159 10.8617 0.673428 -17.7336 -2.24072 -0.0928152 -5.60342 -4.21226 1.28374 -1.88424 -6.55852 1.40809 2.29315 
-160.145 97.571 120.622 -93.8394 -46.9361 -93.5699 -175.003 1.49474 86.7689 -23.3191 17.5377 -0.526894 78.3979 11.4282 -2.26343 14.7514 -10.661 7.86853 174.275 22.0715 89.6753 -28.6303 0.864397 1.00836 67.3436 -3.07868 -1.71472 20.7419 2.56525 3.40179 0.440369 7.99809 -90.2133 10.8795 0.778291 -0.496775 -0.791288 0.755677 -0.530556 -23.3282 0.891622 -0.239892 -3.31551 0.891615 -0.239892 91.3179 -26.5726 -105.382 42.0026 -15.6132 -3.91022 -16.0756 -14.9282 -28.4085 -9.84639 -0.0584414 -4.66966 -86.2344 -47.0766 83.9238 -24.5779 22.546 -8.61326 7.54263 -6.60963 -14.5302 -1.72934 -0.0913501 -5.18111 -5.0288 3.28552 0.512363 -8.20384 3.1942 0.801853 
-156.408 98.1739 117.64 -93.8379 -44.7738 -93.8167 -175.053 3.78401 85.854 -21.9413 15.7118 -1.25731 75.2239 9.23103 -1.53267 15.5177 -9.10176 5.89692 174.211 17.9926 88.7116 -44.119 -7.26177 -1.31068 68.774 -4.37431 -2.25662 22.1762 1.75947 4.01611 0.801604 7.96235 -89.9899 10.9507 1.60058 -0.132009 -0.719303 1.59323 -0.202344 -23.2621 1.56624 0.355263 -3.2495 1.56623 0.355245 91.2739 -25.2512 -105.998 42.9678 -15.667 -4.9918 -18.9621 -16.4907 -32.4637 -10.5178 -0.122212 -4.01599 -86.1935 -48.7945 84.256 -25.1995 22.3461 -0.591442 6.31241 -9.55866 -11.7144 -1.02501 -0.08202 -3.59215 -7.46175 3.29632 1.69735 -7.22168 3.24628 -2.20056 
-153.023 97.9516 114.447 -94.3961 -45.0573 -95.4628 -175.412 7.44967 84.7408 -22.9117 16.1918 -1.82822 71.6887 6.47069 -2.23901 16.1325 -9.17371 6.58745 172.767 10.2991 86.3247 -52.1054 -9.61951 -2.56774 68.0165 -4.02857 -1.85019 23.4105 1.50143 3.14899 1.12091 7.9162 -89.6828 11.0389 2.37839 0.402745 -0.62991 2.39385 0.297611 -23.1794 2.14738 1.09925 -3.1668 2.14736 1.09922 90.9567 -24.9747 -106.79 43.7201 -15.5772 -4.22507 -20.3817 -15.7649 -35.4942 -10.5271 -0.137891 -3.81666 -85.8364 -49.6237 84.9239 -27.0375 18.9908 4.7451 6.57201 -10.5214 -12.5667 -0.992942 -0.0814107 -3.61329 -9.13724 1.88791 -0.425495 -7.27935 2.01424 -2.81692 
-149.523 97.4264 110.721 -95.8404 -45.0282 -98.4172 -176.024 10.8697 82.7028 -25.073 15.2911 -2.15619 70.5428 5.47701 -1.40162 12.6928 -9.89271 4.74531 171.578 1.66522 83.4848 -52.6299 -18.9257 -4.33534 66.8786 -3.97676 -2.13154 24.4552 0.911986 3.63409 1.42983 8.01156 -89.3816 10.8397 3.13266 0.937331 -0.827723 3.17085 0.798413 -23.3841 2.70608 1.836 -3.37146 2.70607 1.836 90.9927 -24.2897 -107.001 43.4253 -17.6438 -5.10433 -20.4159 -16.1426 -35.3683 -9.45363 -0.104302 -4.09304 -85.6501 -51.0953 85.4129 -27.9943 14.8434 6.86649 6.80714 -11.3293 -16.069 -1.60895 -0.0843751 -3.81272 -11.7456 0.428118 -1.14493 -5.72318 0.58273 -5.32373 
